<svg width="52" height="112" viewBox="0 0 52 112" fill="none" xmlns="http://www.w3.org/2000/svg">
<path d="M35.3608 12.4126C30.7278 6.86703 26.7378 1.23483 25.9228 0.065025C25.8368 -0.021675 25.7088 -0.021675 25.6228 0.065025C24.8078 1.23483 20.8178 6.86703 16.1848 12.4126C-23.5822 63.579 22.4478 98.109 22.4478 98.109L22.8348 98.369C23.1778 103.698 24.0358 111.367 24.0358 111.367H25.7518H27.4678C27.4678 111.367 28.3258 103.741 28.6688 98.369L29.0548 98.066C29.0978 98.109 75.1278 63.579 35.3608 12.4126ZM25.7518 97.373C25.7518 97.373 23.6928 95.596 23.1348 94.687V94.6L25.6228 38.8841C25.6228 38.7108 25.8798 38.7108 25.8798 38.8841L28.3678 94.6V94.687C27.8108 95.596 25.7518 97.373 25.7518 97.373Z" fill="#00ED64"/>
</svg>
